<svg xmlns="http://www.w3.org/2000/svg" viewBox="0 0 128 128" width="128" height="128">
  <!-- ghcord "Unread Log" mark — for dark backgrounds -->
  <defs>
    <mask id="badge-gap">
      <rect width="128" height="128" fill="#fff"/>
      <circle cx="108" cy="20" r="19" fill="#000"/>
    </mask>
  </defs>
  <g mask="url(#badge-gap)">
    <path d="M28 18 H100 C108.8 18 116 25.2 116 34 V78 C116 86.8 108.8 94 100 94 H60 L41 110.5 C38 113 33.5 111.2 33.5 107.5 V94 H28 C19.2 94 12 86.8 12 78 V34 C12 25.2 19.2 18 28 18 Z" fill="#8B90FF"/>
    <path d="M40 58 H88" stroke="#14162B" stroke-width="6.5" stroke-linecap="round" fill="none"/>
    <circle cx="40" cy="58" r="8" fill="#14162B"/>
    <circle cx="64" cy="58" r="8" fill="#14162B"/>
    <circle cx="88" cy="58" r="8" fill="#14162B"/>
  </g>
  <circle cx="108" cy="20" r="13" fill="#FF6E5A"/>
</svg>
